<?xml version="1.0" encoding="UTF-8" standalone="no" ?>
<!DOCTYPE svg PUBLIC "-//W3C//DTD SVG 1.1//EN" "http://www.w3.org/Graphics/SVG/1.1/DTD/svg11.dtd">
<svg xmlns="http://www.w3.org/2000/svg" xmlns:xlink="http://www.w3.org/1999/xlink" version="1.1" width="720" height="720" viewBox="300 300 560 560" xml:space="preserve">
<desc>Created with Fabric.js 5.2.4</desc>
<defs>
</defs>
<rect x="0" y="0" width="100%" height="100%" fill="transparent"></rect>
<g transform="matrix(1 0 0 1 540 540)" id="fca4a32b-fe66-4174-9a7d-71928d2a16a0"  >
<rect style="stroke: none; stroke-width: 1; stroke-dasharray: none; stroke-linecap: butt; stroke-dashoffset: 0; stroke-linejoin: miter; stroke-miterlimit: 4; fill: rgb(255,255,255); fill-rule: nonzero; opacity: 1; visibility: hidden;" vector-effect="non-scaling-stroke"  x="-540" y="-540" rx="0" ry="0" width="1080" height="1080" />
</g>
<g transform="matrix(Infinity NaN NaN Infinity 0 0)" id="a0ec53fe-6a58-4aab-b18e-7ce8bc51362a"  >
</g>
<g transform="matrix(1 0 0 1 553.61 440.3)"  >
<path style="stroke: none; stroke-width: 1; stroke-dasharray: none; stroke-linecap: butt; stroke-dashoffset: 0; stroke-linejoin: miter; stroke-miterlimit: 4; fill: rgb(7,160,164); fill-rule: nonzero; opacity: 1;" vector-effect="non-scaling-stroke"  transform=" translate(-193.76, -165.76)" d="M 230.426575 131.063965 C 233.930313 133.932541 240.300858 133.569183 245.38765 130.203262 C 263.300751 118.350182 281.142792 106.387711 299.157135 94.690529 C 306.967926 89.618767 315.063293 84.97052 323.156433 80.35247 C 330.852386 75.961014 339.7276 76.574013 347.365967 83.244789 C 345.315796 84.357933 343.210388 85.129234 341.55072 86.457489 C 312.834625 109.439125 284.072815 132.366028 255.571304 155.611786 C 248.515106 161.366821 240.198349 160.581863 232.321487 161.567261 C 195.008911 166.235107 157.62262 170.310913 120.29734 174.881592 C 108.607101 176.313141 97.188141 178.933121 89.90657 189.733414 C 85.100815 196.861481 83.06324 204.799347 82.685425 213.284714 C 82.152672 225.24971 81.560913 237.212189 80.940369 249.172958 C 80.884293 250.253754 80.434441 251.314102 79.772202 253.967834 C 77.05471 249.509598 74.818336 246.320984 73.070038 242.884094 C 67.41185 231.760986 62.008129 220.508606 56.368252 209.375992 C 46.520626 189.937668 41.484818 169.257202 40.264854 147.593597 C 39.211769 128.893372 45.916 113.273682 61.183544 102.599106 C 72.779678 94.491463 86.551613 92.182671 100.744492 93.382568 C 107.189476 93.927437 113.639214 94.41629 120.854034 95.058098 C 123.143082 95.793076 124.615005 96.693054 126.194458 96.962311 C 140.710846 99.437057 155.218826 101.985008 169.783524 104.145683 C 182.910828 106.093102 195.869827 104.861122 208.687683 101.340813 C 211.426788 100.588547 214.565018 101.289574 217.519379 101.321091 C 216.858215 104.455009 216.36937 107.640953 215.447189 110.696091 C 215.100586 111.844368 213.929504 113.031128 212.82489 113.616211 C 206.136368 117.158882 199.6922 121.782692 192.538254 123.693115 C 179.126816 127.274582 165.279236 129.213303 151.639755 131.967499 C 150.459259 132.205872 149.476959 133.425888 148.402603 134.189926 C 149.629074 134.778488 150.809692 135.521896 152.097519 135.903351 C 153.016129 136.175446 154.080475 136.000198 155.076965 135.957962 C 170.156158 135.319077 185.247162 134.870392 200.309402 133.951157 C 210.36972 133.337158 220.388962 132.049911 230.426575 131.063965 z" stroke-linecap="round" />
</g>
<g transform="matrix(1 0 0 1 423.22 593.93)"  >
<path style="stroke: none; stroke-width: 1; stroke-dasharray: none; stroke-linecap: butt; stroke-dashoffset: 0; stroke-linejoin: miter; stroke-miterlimit: 4; fill: rgb(7,160,164); fill-rule: nonzero; opacity: 1;" vector-effect="non-scaling-stroke"  transform=" translate(-63.37, -317.79)" d="M 63.06739 240.910522 C 71.929596 256.98877 81.311485 272.406189 89.182076 288.559937 C 105.826065 322.720398 115.931732 358.715973 113.426216 397.064148 C 111.542618 425.893402 105.14389 454.021057 95.848068 481.423859 C 95.283134 483.089233 94.360153 484.633179 92.998123 487.515137 C 92.370628 485.178223 91.885811 484.205292 91.880348 483.229706 C 91.765511 462.727875 86.984558 443.335999 77.878464 425.024597 C 71.958115 413.119385 66.021233 401.210205 59.650959 389.543518 C 46.483391 365.42807 32.705364 341.557312 24.020773 315.375427 C 16.768255 293.510864 12.940369 270.892609 12.939439 247.730927 C 12.938121 214.877411 20.003357 183.383408 31.084637 152.655548 C 31.695473 150.961716 32.701962 149.410583 34.654934 148.067383 C 34.809254 148.955826 35.116917 149.847931 35.095688 150.732147 C 34.385437 180.319077 43.913792 206.992172 58.251606 232.303558 C 59.811783 235.057846 61.352558 237.82312 63.06739 240.910522 z" stroke-linecap="round" />
</g>
<g transform="matrix(1.52 0 0 1.52 571.93 642.34)"  >
<path style="stroke: none; stroke-width: 1; stroke-dasharray: none; stroke-linecap: butt; stroke-dashoffset: 0; stroke-linejoin: miter; stroke-miterlimit: 4; fill: rgb(11,161,165); fill-rule: nonzero; opacity: 1;" vector-effect="non-scaling-stroke"  transform=" translate(-169.12, -290.59)" d="M 144.364853 306.630859 C 128.964676 288.816284 120.207123 268.166901 114.97583 245.837448 C 113.941696 241.423309 114.484474 237.227737 117.585098 233.620468 C 123.344833 226.919678 133.40184 229.240967 136.539825 238.239822 C 137.730392 241.654068 138.121307 245.377747 138.626587 248.995331 C 141.557159 269.977325 150.783524 287.904724 164.975143 303.405792 C 168.754868 307.534302 170.567642 307.489044 174.209305 303.212158 C 188.894928 285.964966 197.574326 266.20163 199.223846 243.454041 C 199.434998 240.542175 200.205704 237.496231 201.465027 234.87114 C 204.142365 229.290192 208.311676 227.450104 213.666122 228.829041 C 219.150665 230.241455 222.798859 234.861115 222.298859 240.689606 C 221.873657 245.64624 221.243637 250.698349 219.806229 255.435745 C 213.172668 277.298798 204.490616 298.065765 187.156143 314.037903 C 182.56337 318.269714 182.678101 320.332275 187.917038 323.729095 C 197.818832 330.149139 208.019196 336.107056 218.034103 342.355408 C 220.551575 343.926086 225.066437 344.983612 223.382355 348.764496 C 222.62149 350.472778 217.875259 351.409515 215.140854 351.067505 C 200.568069 349.244598 187.915771 342.448883 176.091827 334.238708 C 171.445084 331.012177 168.348999 331.069794 163.848434 334.532806 C 152.139328 343.542572 139.355576 350.612823 124.350494 352.587769 C 123.041855 352.76001 121.663483 352.897369 120.381081 352.678467 C 116.949432 352.092682 115.984642 349.939423 118.372665 347.484161 C 120.646126 345.146667 123.582352 343.42569 126.32338 341.576172 C 135.129547 335.634247 144.004333 329.793915 152.801697 323.839172 C 156.290024 321.477997 156.791016 318.896423 153.351715 315.800232 C 150.264481 313.020966 147.510376 309.871704 144.364853 306.630859 z" stroke-linecap="round" />
</g>
<g transform="matrix(1.78 0 0 1.78 569.84 504.54)"  >
<path style="stroke: none; stroke-width: 1; stroke-dasharray: none; stroke-linecap: butt; stroke-dashoffset: 0; stroke-linejoin: miter; stroke-miterlimit: 4; fill: rgb(9,161,165); fill-rule: nonzero; opacity: 1;" vector-effect="non-scaling-stroke"  transform=" translate(-165.34, -207.53)" d="M 185.848465 207.869049 C 185.521866 214.798264 183.962082 220.741287 179.203674 225.572159 C 174.040298 230.814194 167.947052 233.720169 160.753174 231.588776 C 153.615433 229.474014 147.807495 224.816101 146.054886 217.336105 C 144.796448 211.965164 144.476028 206.059921 145.228104 200.598358 C 146.756393 189.499878 155.23613 182.450394 165.253265 182.768997 C 175.667236 183.100204 184.122787 191.064514 185.538162 201.945602 C 185.773254 203.752914 185.756927 205.592926 185.848465 207.869049 z" stroke-linecap="round" />
</g>
<g transform="matrix(1 0 0 1 633.63 355.56)"  >
<path style="stroke: none; stroke-width: 1; stroke-dasharray: none; stroke-linecap: butt; stroke-dashoffset: 0; stroke-linejoin: miter; stroke-miterlimit: 4; fill: rgb(14,162,166); fill-rule: nonzero; opacity: 1;" vector-effect="non-scaling-stroke"  transform=" translate(-273.78, -79.43)" d="M 300.231659 43.009251 C 291.420807 62.435303 282.645782 81.461899 273.840759 100.474602 C 273.49939 101.211685 273.001373 102.006401 272.354401 102.451958 C 264.467102 107.883789 256.538208 113.255165 248.620102 118.642235 C 248.188217 118.329407 247.756332 118.016571 247.324448 117.703743 C 247.638748 116.437614 247.705444 115.038353 248.304047 113.925117 C 259.254517 93.560768 270.14682 73.162956 281.37674 52.952972 C 283.513977 49.106613 286.818573 45.809315 289.98468 42.661095 C 293.424164 39.24102 296.943512 39.447872 300.231659 43.009251 z" stroke-linecap="round" />
</g>
<g transform="matrix(1 0 0 1 667.85 345.74)"  >
<path style="stroke: none; stroke-width: 1; stroke-dasharray: none; stroke-linecap: butt; stroke-dashoffset: 0; stroke-linejoin: miter; stroke-miterlimit: 4; fill: rgb(14,162,166); fill-rule: nonzero; opacity: 1;" vector-effect="non-scaling-stroke"  transform=" translate(-308, -69.61)" d="M 326.249329 44.623184 C 333.498169 45.227009 333.477783 45.53339 330.455963 51.570503 C 320.540131 71.380814 303.90271 83.813583 283.634583 94.592041 C 284.511169 91.778122 284.65033 89.826935 285.617767 88.463417 C 293.509583 77.340408 301.254089 66.089241 309.686859 55.38393 C 313.720612 50.263165 318.500092 45.241505 326.249329 44.623184 z" stroke-linecap="round" />
</g>
</svg>